#!OML:ASF C:\ViconDB\ViconDB\414\Spring2016\041811\Spring2016.ASF
:FULLY-SPECIFIED
:DEGREES
278
root 7.71951 17.224 -39.5823 -173.507 -3.65947 177.961
lowerback 11.0384 0.624793 -4.03068
upperback -0.0904346 0.237027 -0.217662
thorax -6.31746 0.214018 2.00849
lowerneck -11.391 -5.76921 -16.8306
upperneck 8.46408 -7.70599 19.287
head 5.88126 -3.33137 8.37685
rclavicle -1.76887e-015 -7.70291e-015
rhumerus -3.95901 14.2732 -53.7814
rradius 105.414
rwrist -4.49035
rhand -36.9987 -17.2166
rfingers 7.12502
rthumb -10.0734 -46.9555
lclavicle -1.76887e-015 -7.70291e-015
lhumerus 1.63197 -6.02661 47.6506
lradius 91.7357
lwrist 1.2732
lhand -32.931 17.1149
lfingers 7.12502
lthumb -6.14761 47.0057
rfemur -9.97304 -17.7463 12.7704
rtibia 54.4592
rfoot -6.1759 -7.08827
rtoes -0.197778
lfemur -16.5669 6.24771 -11.0256
ltibia 52.1672
lfoot -23.243 0.367881
ltoes -27.38
279
root 7.69232 17.5105 -40.0094 -173.672 -3.30425 178.119
lowerback 9.09156 0.661191 -3.74451
upperback -0.422863 0.432601 -0.194776
thorax -5.5779 0.30542 1.84602
lowerneck -11.1397 -5.8655 -16.7658
upperneck 10.1348 -8.1242 19.0337
head 6.40946 -3.55518 8.26633
rclavicle -7.23895e-015 -2.7364e-015
rhumerus -1.63726 13.48 -51.2414
rradius 108.482
rwrist -5.96854
rhand -36.8915 -17.823
rfingers 7.12502
rthumb -9.97 -47.5669
lclavicle -7.23895e-015 -2.7364e-015
lhumerus 3.68595 -4.65013 45.4666
lradius 93.7413
lwrist 2.3135
lhand -33.2346 17.4334
lfingers 7.12502
lthumb -6.44069 47.3154
rfemur -7.91626 -17.1082 12.4632
rtibia 52.4437
rfoot -9.85227 -4.1134
rtoes -1.97425
lfemur -13.4651 5.54314 -11.1182
ltibia 49.102
lfoot -19.1967 1.77715
ltoes -29.6496
280
root 7.67738 17.8384 -40.4357 -174.131 -3.07023 178.169
lowerback 8.04161 0.690441 -3.60109
upperback -0.839505 0.538497 -0.198837
thorax -5.42589 0.362934 1.75066
lowerneck -10.9169 -5.85124 -16.8592
upperneck 11.7111 -8.42063 19.0284
head 6.91474 -3.72742 8.28858
rclavicle -6.35024e-015 -2.70223e-015
rhumerus 0.387639 12.3775 -49.0306
rradius 111.417
rwrist -7.88072
rhand -36.3197 -17.4772
rfingers 7.12502
rthumb -9.41831 -47.2467
lclavicle -6.35024e-015 -2.70223e-015
lhumerus 5.44197 -3.2259 43.5137
lradius 95.6618
lwrist 3.36463
lhand -34.0259 18.0805
lfingers 7.12502
lthumb -7.20461 47.9378
rfemur -5.88365 -16.5022 12.1204
rtibia 50.6136
rfoot -13.7737 -0.373167
rtoes -4.74058
lfemur -10.4037 4.12003 -11.1925
ltibia 46.1089
lfoot -14.1878 3.0072
ltoes -28.2109
281
root 7.66222 18.1817 -40.8477 -174.682 -2.90708 178.099
lowerback 7.0558 0.673569 -3.82242
upperback -1.01083 0.547498 -0.0819481
thorax -5.05122 0.374411 2.00139
lowerneck -10.4769 -5.53826 -16.6245
upperneck 12.4811 -8.19453 18.7425
head 7.00285 -3.65892 8.19749
rclavicle -1.32005e-014 1.79403e-014
rhumerus 2.62451 11.5108 -46.777
rradius 114.538
rwrist -7.28633
rhand -35.9832 -22.2829
rfingers 7.12502
rthumb -9.09355 -52.0668
lclavicle -1.32005e-014 1.79403e-014
lhumerus 7.24903 -1.56865 41.5006
lradius 97.4163
lwrist 4.15401
lhand -34.4224 18.9842
lfingers 7.12502
lthumb -7.58733 48.8281
rfemur -4.28311 -16.205 11.6457
rtibia 49.1185
rfoot -18.0957 4.02067
rtoes -7.6645
lfemur -7.60727 2.55713 -11.4707
ltibia 43.1965
lfoot -8.79315 4.67087
ltoes -25.8667
282
root 7.65038 18.5004 -41.2363 -175.194 -2.85955 178.148
lowerback 6.6099 0.655001 -4.02868
upperback -1.39179 0.534172 0.154726
thorax -5.20174 0.388453 2.36635
lowerneck -9.97358 -5.38601 -16.7297
upperneck 13.2123 -8.18511 18.6535
head 7.13493 -3.70691 8.2125
rclavicle -2.08724e-015 1.25234e-014
rhumerus 4.52629 10.0726 -44.6637
rradius 116.933
rwrist -7.92566
rhand -37.4985 -23.5659
rfingers 7.12502
rthumb -10.5556 -53.2808
lclavicle -2.08724e-015 1.25234e-014
lhumerus 8.44483 0.205307 40.1335
lradius 99.1784
lwrist 4.53461
lhand -34.8816 19.8777
lfingers 7.12502
lthumb -8.03047 49.7051
rfemur -3.09974 -16.071 11.3963
rtibia 47.9414
rfoot -22.0114 8.36504
rtoes -10.2635
lfemur -5.33042 1.70152 -11.7904
ltibia 40.2971
lfoot -2.3512 6.63187
ltoes -24.5372
283
root 7.64057 18.8246 -41.6199 -175.548 -2.82231 177.923
lowerback 6.00793 0.652037 -4.61383
upperback -1.64688 0.515883 0.359528
thorax -5.13603 0.403952 2.91355
lowerneck -9.37395 -5.08796 -16.4426
upperneck 13.5348 -7.88044 18.159
head 7.03026 -3.61291 8.03355
rclavicle -4.84538e-015 9.14409e-015
rhumerus 6.26414 8.97231 -42.8436
rradius 120.128
rwrist -9.74938
rhand -36.7085 -25.9959
rfingers 7.12502
rthumb -9.7934 -55.7481
lclavicle -4.84538e-015 9.14409e-015
lhumerus 9.49527 1.95843 39.0656
lradius 100.948
lwrist 4.16601
lhand -35.8015 20.5638
lfingers 7.12502
lthumb -8.91822 50.3553
rfemur -2.30216 -15.9362 10.8901
rtibia 47.0447
rfoot -25.1102 11.9409
rtoes -11.8928
lfemur -3.31551 0.555767 -12.3926
ltibia 37.5641
lfoot 3.23225 8.7341
ltoes -20.0339
284
root 7.64133 19.1483 -41.9882 -175.837 -2.87066 177.881
lowerback 5.53008 0.601002 -5.09023
upperback -1.74092 0.448475 0.645414
thorax -4.96629 0.388119 3.48927
lowerneck -9.62092 -5.04437 -16.4083
upperneck 14.2101 -7.85941 17.906
head 7.27034 -3.61218 7.95462
rclavicle -1.86733e-014 6.36111e-015
rhumerus 8.07213 7.3754 -41.3906
rradius 122.699
rwrist -11.6236
rhand -36.7693 -26.6999
rfingers 7.12502
rthumb -9.85208 -56.4494
lclavicle -1.86733e-014 6.36111e-015
lhumerus 10.7632 4.31123 38.2962
lradius 101.66
lwrist 3.05997
lhand -36.6472 19.7932
lfingers 7.12502
lthumb -9.73429 49.5482
rfemur -1.8062 -15.5333 10.8302
rtibia 46.3224
rfoot -27.3233 15.2984
rtoes -14.5331
lfemur -1.63974 -0.418732 -12.6895
ltibia 35.2354
lfoot 7.68209 10.3549
ltoes -13.44
285
root 7.63823 19.4463 -42.348 -175.984 -2.84008 177.584
lowerback 4.98557 0.664192 -5.55217
upperback -1.7791 0.529995 0.684367
thorax -4.71239 0.436189 3.7847
lowerneck -9.90344 -4.92975 -16.187
upperneck 14.7936 -7.7259 17.5806
head 7.45806 -3.54894 7.8266
rclavicle -6.18717e-015 -2.18663e-015
rhumerus 8.07213 7.3754 -41.3906
rradius 122.699
rwrist -11.6236
rhand -36.7693 -26.6999
rfingers 7.12502
rthumb -9.85208 -56.4494
lclavicle -6.18717e-015 -2.18663e-015
lhumerus 12.2026 5.90832 37.693
lradius 102.807
lwrist 3.0844
lhand -38.8952 15.215
lfingers 7.12502
lthumb -11.9026 44.8566
rfemur -1.38902 -14.9576 10.458
rtibia 45.6378
rfoot -29.0658 16.1942
rtoes -15.8074
lfemur -0.432822 -0.968403 -13.2912
ltibia 33.6444
lfoot 10.5245 10.5809
ltoes -5.95103
286
root 7.63821 19.699 -42.6756 -176.028 -2.8105 177.533
lowerback 4.46279 0.582753 -5.71213
upperback -1.81407 0.437891 0.650851
thorax -4.44394 0.386494 3.84984
lowerneck -10.2543 -4.86663 -15.7172
upperneck 15.4821 -7.76197 17.3451
head 7.71921 -3.55509 7.66906
rclavicle -3.02525e-015 -5.96354e-015
rhumerus 8.07213 7.3754 -41.3906
rradius 122.699
rwrist -11.6236
rhand -36.7693 -26.6999
rfingers 7.12502
rthumb -9.85208 -56.4494
lclavicle -3.02525e-015 -5.96354e-015
lhumerus 13.1455 7.37046 36.8634
lradius 103.936
lwrist 3.31438
lhand -40.0634 16.0507
lfingers 7.12502
lthumb -13.0289 45.6238
rfemur -0.996698 -14.1966 10.4584
rtibia 44.9544
rfoot -29.7716 14.3749
rtoes -15.9599
lfemur 0.0458054 -1.02255 -13.5011
ltibia 32.8766
lfoot 10.6709 9.71304
ltoes -4.22608
287
root 7.63568 19.927 -42.988 -176.003 -2.83076 177.519
lowerback 4.12341 0.52454 -5.74544
upperback -1.93193 0.374453 0.681646
thorax -4.36838 0.355588 3.90684
lowerneck -10.1973 -4.6222 -15.586
upperneck 15.9514 -7.53395 17.2649
head 7.80638 -3.46116 7.65873
rclavicle -4.55962e-015 1.45113e-014
rhumerus 8.07213 7.3754 -41.3906
rradius 122.699
rwrist -11.6236
rhand -36.7693 -26.6999
rfingers 7.12502
rthumb -9.85208 -56.4494
lclavicle -4.55962e-015 1.45113e-014
lhumerus 13.6853 8.37291 36.513
lradius 104.928
lwrist 3.51204
lhand -41.1405 16.8919
lfingers 7.12502
lthumb -14.0671 46.3958
rfemur -0.80604 -13.8329 10.4092
rtibia 44.3453
rfoot -29.8775 11.6739
rtoes -16.0094
lfemur -0.0650787 -0.840673 -13.6347
ltibia 32.7842
lfoot 9.3872 8.58423
ltoes -5.99901
288
root 7.63371 20.1481 -43.2977 -176.009 -2.82998 177.57
lowerback 3.91742 0.498193 -5.64286
upperback -2.05075 0.354624 0.739107
thorax -4.37281 0.345399 3.91097
lowerneck -10.2162 -4.63081 -15.8214
upperneck 16.6362 -7.64294 17.2454
head 8.05848 -3.54613 7.70303
rclavicle 9.52924e-015 -6.16232e-015
rhumerus 8.07213 7.3754 -41.3906
rradius 122.699
rwrist -11.6236
rhand -36.7693 -26.6999
rfingers 7.12502
rthumb -9.85208 -56.4494
lclavicle 9.52924e-015 -6.16232e-015
lhumerus 13.6992 7.9432 36.2396
lradius 105.401
lwrist 2.12923
lhand -46.4486 21.6511
lfingers 7.12502
lthumb -19.1771 50.7256
rfemur -0.867053 -13.9979 10.3714
rtibia 43.8685
rfoot -30.0139 9.71092
rtoes -15.8877
lfemur -0.441385 -0.441256 -13.651
ltibia 33.0946
lfoot 8.5505 7.74987
ltoes -5.55468
